<svg id="visual" viewBox="0 0 900 600" width="900" height="600" xmlns="http://www.w3.org/2000/svg" xmlns:xlink="http://www.w3.org/1999/xlink" version="1.1"><rect x="0" y="0" width="900" height="600" fill="#e3e3ed"></rect><path d="M0 237L18.8 240C37.7 243 75.3 249 112.8 237C150.3 225 187.7 195 225.2 201.7C262.7 208.3 300.3 251.7 337.8 258.7C375.3 265.7 412.7 236.3 450.2 212.5C487.7 188.7 525.3 170.3 562.8 179.7C600.3 189 637.7 226 675.2 237.3C712.7 248.7 750.3 234.3 787.8 214.7C825.3 195 862.7 170 881.3 157.5L900 145L900 601L881.3 601C862.7 601 825.3 601 787.8 601C750.3 601 712.7 601 675.2 601C637.7 601 600.3 601 562.8 601C525.3 601 487.7 601 450.2 601C412.7 601 375.3 601 337.8 601C300.3 601 262.7 601 225.2 601C187.7 601 150.3 601 112.8 601C75.3 601 37.7 601 18.8 601L0 601Z" fill="#dad9e7"></path><path d="M0 235L18.8 241C37.7 247 75.3 259 112.8 264.7C150.3 270.3 187.7 269.7 225.2 280.5C262.7 291.3 300.3 313.7 337.8 306.3C375.3 299 412.7 262 450.2 257C487.7 252 525.3 279 562.8 293.3C600.3 307.7 637.7 309.3 675.2 311.5C712.7 313.7 750.3 316.3 787.8 321.8C825.3 327.3 862.7 335.7 881.3 339.8L900 344L900 601L881.3 601C862.7 601 825.3 601 787.8 601C750.3 601 712.7 601 675.2 601C637.7 601 600.3 601 562.8 601C525.3 601 487.7 601 450.2 601C412.7 601 375.3 601 337.8 601C300.3 601 262.7 601 225.2 601C187.7 601 150.3 601 112.8 601C75.3 601 37.7 601 18.8 601L0 601Z" fill="#b7b5ce"></path><path d="M0 343L18.8 349C37.7 355 75.3 367 112.8 362C150.3 357 187.7 335 225.2 327.7C262.7 320.3 300.3 327.7 337.8 329.7C375.3 331.7 412.7 328.3 450.2 336.3C487.7 344.3 525.3 363.7 562.8 362C600.3 360.3 637.7 337.7 675.2 340C712.7 342.3 750.3 369.7 787.8 368.2C825.3 366.7 862.7 336.3 881.3 321.2L900 306L900 601L881.3 601C862.7 601 825.3 601 787.8 601C750.3 601 712.7 601 675.2 601C637.7 601 600.3 601 562.8 601C525.3 601 487.7 601 450.2 601C412.7 601 375.3 601 337.8 601C300.3 601 262.7 601 225.2 601C187.7 601 150.3 601 112.8 601C75.3 601 37.7 601 18.8 601L0 601Z" fill="#9593b5"></path><path d="M0 422L18.8 419.8C37.7 417.7 75.3 413.3 112.8 422.7C150.3 432 187.7 455 225.2 457.2C262.7 459.3 300.3 440.7 337.8 432.3C375.3 424 412.7 426 450.2 429C487.7 432 525.3 436 562.8 438C600.3 440 637.7 440 675.2 433.5C712.7 427 750.3 414 787.8 418.3C825.3 422.7 862.7 444.3 881.3 455.2L900 466L900 601L881.3 601C862.7 601 825.3 601 787.8 601C750.3 601 712.7 601 675.2 601C637.7 601 600.3 601 562.8 601C525.3 601 487.7 601 450.2 601C412.7 601 375.3 601 337.8 601C300.3 601 262.7 601 225.2 601C187.7 601 150.3 601 112.8 601C75.3 601 37.7 601 18.8 601L0 601Z" fill="#74729c"></path><path d="M0 472L18.8 477C37.7 482 75.3 492 112.8 495.3C150.3 498.7 187.7 495.3 225.2 501C262.7 506.7 300.3 521.3 337.8 528.2C375.3 535 412.7 534 450.2 531.2C487.7 528.3 525.3 523.7 562.8 512.8C600.3 502 637.7 485 675.2 475.5C712.7 466 750.3 464 787.8 466C825.3 468 862.7 474 881.3 477L900 480L900 601L881.3 601C862.7 601 825.3 601 787.8 601C750.3 601 712.7 601 675.2 601C637.7 601 600.3 601 562.8 601C525.3 601 487.7 601 450.2 601C412.7 601 375.3 601 337.8 601C300.3 601 262.7 601 225.2 601C187.7 601 150.3 601 112.8 601C75.3 601 37.7 601 18.8 601L0 601Z" fill="#4a4974"></path></svg>